<?xml version="1.0" encoding="UTF-8" standalone="no"?>
<svg
   xmlns:dc="http://purl.org/dc/elements/1.1/"
   xmlns:cc="http://creativecommons.org/ns#"
   xmlns:rdf="http://www.w3.org/1999/02/22-rdf-syntax-ns#"
   xmlns:svg="http://www.w3.org/2000/svg"
   xmlns="http://www.w3.org/2000/svg"
   xmlns:sodipodi="http://sodipodi.sourceforge.net/DTD/sodipodi-0.dtd"
   xmlns:inkscape="http://www.inkscape.org/namespaces/inkscape"
   width="262.43286"
   height="35.893936"
   viewBox="0 0 262.43286 35.893936"
   version="1.1"
   id="svg18"
   sodipodi:docname="logo.svg"
   inkscape:version="0.92.3 (2405546, 2018-03-11)">
  <metadata
     id="metadata24">
    <rdf:RDF>
      <cc:Work
         rdf:about="">
        <dc:format>image/svg+xml</dc:format>
        <dc:type
           rdf:resource="http://purl.org/dc/dcmitype/StillImage" />
        <dc:title>Logo</dc:title>
      </cc:Work>
    </rdf:RDF>
  </metadata>
  <defs
     id="defs22" />
  <sodipodi:namedview
     pagecolor="#ffffff"
     bordercolor="#666666"
     borderopacity="1"
     objecttolerance="10"
     gridtolerance="10"
     guidetolerance="10"
     inkscape:pageopacity="0"
     inkscape:pageshadow="2"
     inkscape:window-width="1875"
     inkscape:window-height="1027"
     id="namedview20"
     showgrid="false"
     fit-margin-top="0"
     fit-margin-left="0"
     fit-margin-right="0"
     fit-margin-bottom="0"
     inkscape:zoom="4.8062765"
     inkscape:cx="47.343861"
     inkscape:cy="4.9720352"
     inkscape:window-x="1920"
     inkscape:window-y="27"
     inkscape:window-maximized="1"
     inkscape:current-layer="svg18" />
  <title
     id="title2">Logo</title>
  <g
     style="fill:#ffffff;fill-rule:nonzero;stroke:none;stroke-width:1"
     transform="translate(211.33108,-0.05275139)"
     id="noun_Running_1473810">
    <g
       id="Group">
      <path
         inkscape:connector-curvature="0"
         id="Path"
         d="m 17.641082,30.927273 c 0,-0.490909 -0.32974,-0.818182 -0.824349,-0.818182 H 2.4730489 c -0.4946098,0 -0.8243496,0.327273 -0.8243496,0.818182 0,0.490909 0.3297398,0.818181 0.8243496,0.818181 H 16.816733 c 0.494609,0 0.824349,-0.40909 0.824349,-0.818181 z" />
      <path
         inkscape:connector-curvature="0"
         id="path7"
         d="M 5.7704474,34.2 H 4.1217482 c -0.4946098,0 -0.8243497,0.327273 -0.8243497,0.818182 0,0.490909 0.3297399,0.818182 0.8243497,0.818182 h 1.6486992 c 0.4946098,0 0.8243497,-0.327273 0.8243497,-0.818182 C 6.5947971,34.527273 6.2650572,34.2 5.7704474,34.2 Z" />
      <path
         inkscape:connector-curvature="0"
         id="path9"
         d="m 9.6448907,26.836364 c 0,-0.49091 -0.3297398,-0.818182 -0.8243496,-0.818182 H 0.82434964 C 0.32973985,26.018182 0,26.345454 0,26.836364 c 0,0.490909 0.32973985,0.818181 0.82434964,0.818181 H 8.8205411 c 0.4946098,0 0.8243496,-0.409091 0.8243496,-0.818181 z" />
      <path
         inkscape:connector-curvature="0"
         id="Shape"
         d="m 50.615068,28.227273 c -0.247305,-0.490909 -0.741915,-0.9 -1.236525,-1.145455 l -6.265057,-2.372727 v 0 0 l -2.555484,-0.9 c -0.741915,-0.327273 -1.401394,-0.818182 -1.813569,-1.472727 l -2.143309,-3.518182 c 0.412175,-0.08182 0.65948,-0.409091 0.65948,-0.818182 0,-0.490909 -0.32974,-0.818182 -0.82435,-0.818182 h -0.82435 l -0.989219,-1.636363 c 0.412175,-0.08182 0.659479,-0.409091 0.659479,-0.818182 0,-0.490909 -0.329739,-0.818182 -0.824349,-0.818182 h -0.82435 L 32.809115,12.6 c 0.32974,-0.08182 0.577045,-0.409091 0.577045,-0.736364 0,-0.490909 -0.32974,-0.818181 -0.824349,-0.818181 H 31.819896 L 30.748241,9.3272727 c 0,0 0,-0.081818 -0.08244,-0.081818 C 29.676587,8.1 28.357627,7.5272727 26.956233,7.6909091 c -1.236524,0.1636363 -2.225744,0.9 -2.637919,1.8 -0.08244,0.2454545 -0.08244,0.4909091 0.08244,0.7363639 l 6.842102,11.618181 c 0.08243,0.163637 0.247305,0.327273 0.412175,0.327273 l 8.408366,3.190909 h 0.08243 l 2.473049,0.9 v 0 0 0 0 0 l 6.182622,2.372728 c 0.16487,0.08182 0.32974,0.163636 0.412175,0.409091 0.32974,0.654545 0.32974,1.30909 -0.08243,1.963636 H 35.694339 c -0.824349,0 -1.648699,-0.245455 -2.308179,-0.736364 L 10.386805,13.336364 c 0,0 0.32974,-0.163637 0.741915,-0.736364 0.412175,-0.572727 0.577045,-1.309091 0.577045,-2.045454 L 10.96385,3.6818182 11.95307,2.1272727 C 12.200375,1.8 12.694984,1.7181818 13.024724,1.9636364 c 0.247305,0.2454545 1.236525,1.0636363 3.627139,4.9090909 1.236524,1.8 3.214963,3.1090909 5.440707,3.4363637 0.412175,0.08182 0.906785,-0.245455 0.98922,-0.6545455 0.08243,-0.4090909 -0.247305,-0.9 -0.65948,-0.9818182 C 20.691176,8.3454546 19.042477,7.3636364 18.053257,5.8909091 15.168033,1.4727273 14.343684,0.81818182 14.013944,0.57272727 12.942289,-0.16363636 11.45846,0.08181818 10.63411,1.1454545 L 5.6055775,9.0818182 C 5.2758377,9.5727273 5.1934027,10.145455 5.2758377,10.718182 c -0.4946098,0.163636 -0.9892196,0.409091 -1.2365245,0.9 L 2.7203538,13.663636 C 1.9784391,14.727273 2.308179,16.2 3.3798335,16.936364 c 0.7419147,0.572727 2.308179,1.554545 4.616358,3.027272 0.1648699,0.08182 0.3297398,0.163637 0.4121748,0.163637 0.2473049,0 0.4946098,-0.163637 0.6594797,-0.409091 0.2473049,-0.409091 0.1648699,-0.9 -0.2473049,-1.145455 C 6.5947971,17.1 5.0285328,16.118182 4.2866181,15.545455 3.9568782,15.3 3.8744433,14.890909 4.1217482,14.481818 L 5.3582726,12.6 c 0.2473049,-0.327273 0.7419147,-0.409091 1.0716546,-0.163636 v 0 L 32.314506,31.581818 c 0.989219,0.736364 2.143309,1.063636 3.297398,1.063636 H 46.987929 C 45.256795,33.463636 42.866181,34.2 40.805307,34.2 v 0 h -2.885224 -2.390614 v 0 c -1.401394,0 -2.802789,-0.409091 -3.956878,-1.145454 -4.781228,-3.027273 -13.684204,-8.672728 -20.196566,-12.845455 -0.412175,-0.245455 -0.906785,-0.163636 -1.154089,0.245454 -0.2473054,0.409091 -0.16487,0.9 0.247304,1.145455 6.347493,4.090909 15.003164,9.572727 19.866827,12.681818 H 9.067846 c -0.4946098,0 -0.8243496,0.327273 -0.8243496,0.818182 0,0.490909 0.3297398,0.818182 0.8243496,0.818182 h 26.461623 v 0 h 2.390614 2.802789 v 0 c 3.379833,0 8.243496,-1.8 9.480021,-3.518182 1.071654,-1.472727 1.154089,-2.863636 0.412175,-4.172727 z M 32.396941,20.863636 25.967013,9.9818182 c 0.247305,-0.2454546 0.65948,-0.4909091 1.15409,-0.5727273 0.49461,-0.081818 1.401394,0 2.225744,0.9000001 l 0.49461,0.818182 h -0.741915 c -0.49461,0 -0.82435,0.327273 -0.82435,0.818182 0,0.490909 0.32974,0.818181 0.82435,0.818181 h 1.731134 l 0.82435,1.309091 h -0.65948 c -0.494609,0 -0.824349,0.327273 -0.824349,0.818182 0,0.490909 0.32974,0.818182 0.824349,0.818182 h 1.6487 l 0.989219,1.554545 h -0.65948 c -0.494609,0 -0.824349,0.327273 -0.824349,0.818182 0,0.490909 0.32974,0.818182 0.824349,0.818182 h 1.6487 l 2.308179,3.6 z M 7.0069719,9.9818182 9.5624558,5.9727273 10.057066,10.718182 c 0,0.327273 -0.082435,0.654545 -0.2473053,0.9 -0.16487,0.245454 -0.4946098,0.9 -1.2365245,0.327273 0,0 -0.4121748,-0.245455 -1.1540895,-0.818182 C 6.9245369,10.718182 6.842102,10.309091 7.0069719,9.9818182 Z" />
    </g>
  </g>
  <g
     aria-label="SHOESE"
     style="font-style:normal;font-variant:normal;font-weight:normal;font-stretch:normal;font-size:26.27752113px;line-height:1.25;font-family:'open Sans';-inkscape-font-specification:'open Sans';letter-spacing:0px;word-spacing:0px;fill:#ffffff;fill-opacity:1;stroke:none;stroke-width:1.23175871"
     id="text860"
     transform="translate(-13.559237,-0.05275139)">
    <path
       d="M 38.585352,1.7675037 V 9.0899592 Q 35.735156,7.8154812 33.023992,7.166656 30.312831,6.5178308 27.902908,6.5178308 q -3.197781,0 -4.727154,0.8805486 -1.529374,0.8805483 -1.529374,2.7343346 0,1.390339 1.019583,2.178199 1.042753,0.764687 3.753918,1.320823 l 3.80026,0.764686 q 5.76991,1.158616 8.203004,3.522193 2.433095,2.363579 2.433095,6.719977 0,5.723564 -3.406332,8.527416 -3.383161,2.780679 -10.35803,2.780679 -3.290472,0 -6.604115,-0.625652 -3.313642,-0.625654 -6.627286,-1.853787 v -7.531007 q 3.313644,1.761097 6.395564,2.664818 3.105092,0.880548 5.97846,0.880548 2.919713,0 4.472259,-0.973237 1.552546,-0.973238 1.552546,-2.780679 0,-1.622064 -1.065927,-2.502612 -1.042755,-0.880548 -4.194192,-1.575718 l -3.452676,-0.764687 q -5.190601,-1.112272 -7.600523,-3.545366 -2.386751,-2.433094 -2.386751,-6.557769 0,-5.1674289 3.336817,-7.9481082 3.336815,-2.78067941 9.593343,-2.78067941 2.850196,0 5.862598,0.44027424 3.012404,0.41710184 6.233357,1.27447807 z"
       style="font-style:normal;font-variant:normal;font-weight:bold;font-stretch:normal;font-size:45.98566055px;font-family:'open Sans';-inkscape-font-specification:'open Sans Bold';fill:#ffffff;stroke:none;stroke-width:1.27116764"
       id="path862"
       inkscape:connector-curvature="0" />
    <path
       d="m 48.711659,0.67840427 h 8.921346 V 13.86346 H 70.794888 V 0.67840427 h 8.921346 V 35.27469 H 70.794888 V 20.606606 H 57.633005 V 35.27469 h -8.921346 z"
       style="font-style:normal;font-variant:normal;font-weight:bold;font-stretch:normal;font-size:45.98566055px;font-family:'open Sans';-inkscape-font-specification:'open Sans Bold';fill:#ffffff;stroke:none;stroke-width:1.27116764"
       id="path864"
       inkscape:connector-curvature="0" />
    <path
       d="m 104.27889,6.5178308 q -4.07833,0 -6.32604,3.0124029 -2.24771,3.0124023 -2.24771,8.4810713 0,5.445497 2.24771,8.4579 2.24771,3.012402 6.32604,3.012402 4.1015,0 6.34922,-3.012402 2.24773,-3.012403 2.24773,-8.4579 0,-5.468669 -2.24773,-8.4810713 -2.24772,-3.0124029 -6.34922,-3.0124029 z m 0,-6.46507941 q 8.34204,0 13.06919,4.77349951 4.72717,4.7734996 4.72717,13.1850541 0,8.388384 -4.72717,13.161883 -4.72715,4.773499 -13.06919,4.773499 -8.31886,0 -13.06918,-4.773499 -4.727162,-4.773499 -4.727162,-13.161883 0,-8.4115545 4.727162,-13.1850541 4.75032,-4.77349951 13.06918,-4.77349951 z"
       style="font-style:normal;font-variant:normal;font-weight:bold;font-stretch:normal;font-size:45.98566055px;font-family:'open Sans';-inkscape-font-specification:'open Sans Bold';fill:#ffffff;stroke:none;stroke-width:1.27116764"
       id="path866"
       inkscape:connector-curvature="0" />
    <path
       d="m 128.79522,0.67840427 h 24.07605 V 7.4215516 H 137.71658 V 13.86346 h 14.25096 v 6.743146 h -14.25096 v 7.924937 h 15.66448 v 6.743147 h -24.58584 z"
       style="font-style:normal;font-variant:normal;font-weight:bold;font-stretch:normal;font-size:45.98566055px;font-family:'open Sans';-inkscape-font-specification:'open Sans Bold';fill:#ffffff;stroke:none;stroke-width:1.27116764"
       id="path868"
       inkscape:connector-curvature="0" />
    <path
       d="m 185.31253,1.7675037 v 7.3224555 q -2.8502,-1.274478 -5.56136,-1.9233032 -2.71116,-0.6488252 -5.12109,-0.6488252 -3.19779,0 -4.72715,0.8805486 -1.52937,0.8805483 -1.52937,2.7343346 0,1.390339 1.01957,2.178199 1.04276,0.764687 3.75392,1.320823 l 3.80027,0.764686 q 5.7699,1.158616 8.203,3.522193 2.43308,2.363579 2.43308,6.719977 0,5.723564 -3.40632,8.527416 -3.38316,2.780679 -10.35804,2.780679 -3.29045,0 -6.6041,-0.625652 -3.31364,-0.625654 -6.62728,-1.853787 v -7.531007 q 3.31364,1.761097 6.39555,2.664818 3.10509,0.880548 5.97847,0.880548 2.9197,0 4.47226,-0.973237 1.55254,-0.973238 1.55254,-2.780679 0,-1.622064 -1.06593,-2.502612 -1.04276,-0.880548 -4.19418,-1.575718 l -3.45269,-0.764687 q -5.1906,-1.112272 -7.60052,-3.545366 -2.38674,-2.433094 -2.38674,-6.557769 0,-5.1674289 3.33681,-7.9481082 3.33681,-2.78067941 9.59333,-2.78067941 2.85022,0 5.86262,0.44027424 3.0124,0.41710184 6.23335,1.27447807 z"
       style="font-style:normal;font-variant:normal;font-weight:bold;font-stretch:normal;font-size:45.98566055px;font-family:'open Sans';-inkscape-font-specification:'open Sans Bold';fill:#ffffff;stroke:none;stroke-width:1.27116764"
       id="path870"
       inkscape:connector-curvature="0" />
    <path
       d="m 195.43884,0.67840427 h 24.07605 V 7.4215516 h -15.1547 V 13.86346 h 14.25098 v 6.743146 h -14.25098 v 7.924937 h 15.66449 v 6.743147 h -24.58584 z"
       style="font-style:normal;font-variant:normal;font-weight:bold;font-stretch:normal;font-size:45.98566055px;font-family:'open Sans';-inkscape-font-specification:'open Sans Bold';fill:#ffffff;stroke:none;stroke-width:1.27116764"
       id="path872"
       inkscape:connector-curvature="0" />
  </g>
</svg>
